<?xml version="1.0"?>
<svg version="1.1" xmlns="http://www.w3.org/2000/svg" xmlns:xlink="http://www.w3.org/1999/xlink">
  <g>
    <path d="M291.651,350.456 L214.105,350.271 L208.539,369.138 L237.021,369.208 L215.068,443.356 L235.661,443.407 L257.61,369.257 L286.088,369.326 L291.651,350.458 L291.651,350.456 M308.259,405.676 L351.709,405.779 L357.114,387.842 L313.662,387.736 L319.232,368.735 L368.698,368.855 L374.109,350.648 L304.185,350.482 L276.674,443.497 L341.772,443.323 L347.185,425.118 L302.404,425.344 L308.259,405.676 M170.569,355.925 L156.426,342.751 L118.275,379.975 L101.597,343.418 L82.499,353.704 L103.054,394.831 L61,435.001 L75.9214,446.992 L111.042,411.871 L125.849,446.335 L145.625,437.899 L126.395,397.149 L170.569,355.925 M160.136,405.619 L201.314,405.706 L207.16,388.148 L165.979,388.059 L160.136,405.619 L160.136,405.619 M559.208,343.334 L519.089,414.829 L485.909,344.269 L456.742,443.94 L477.419,443.94 L490.94,396.677 L517.947,449.766 L548.949,397.04 L557.984,443.072 L579.287,442.797 L560.294,350.321 L559.208,343.334 M398.516,409.943 L416.079,386.583 L421.548,409.943 L398.516,409.943 M424.103,344.46 L424.103,344.43 L350.954,443.68 L373.158,443.68 L384.941,428.007 L425.78,428.007 L429.423,443.564 L450.355,443.564 L424.197,344.325 L424.106,344.46 " style="stroke:none;fill-rule:evenodd;fill:#ffffff;fill-opacity:1;"/>
    <path d="M403.744,153.612 L246.303,0.499985 L172.326,73.0011 L255.187,154.207 L154.5,259.142 L226.389,328.5 L403.744,153.612 Z" style="stroke:none;fill-rule:nonzero;fill:#ef2e31;fill-opacity:1;"/>
    <path d="M339.818,237.147 L412.022,307.912 L485.998,235.413 L413.791,164.648 L339.818,237.147 Z" style="stroke:none;fill-rule:nonzero;fill:#ef2e31;fill-opacity:1;"/>
    <path d="M341.419,70.6719 L415.398,143.173 L486.998,73.0011 L413.02,0.499992 L341.419,70.6719 Z" style="stroke:none;fill-rule:nonzero;fill:#ef2e31;fill-opacity:1;"/>
    <path d="M610.616,340.999 L610.616,332.869 L617.766,332.869 C621.195,332.869 623.298,334.342 623.298,336.816 C623.298,339.585 620.775,340.999 617.47,340.999 L610.616,340.999 M626.001,336.699 C626.001,332.869 622.576,330.455 617.892,330.455 L608.029,330.455 L608.029,352.014 L610.616,352.014 L610.616,343.355 L616.987,343.355 L623.96,352.014 L627.326,352.014 L619.993,342.942 C623.541,342.295 626.001,340.233 626.001,336.699 M616.325,361.499 C604.967,361.499 596.436,352.72 596.436,341.882 C596.436,331.043 605.027,322.15 616.447,322.15 C627.805,322.15 636.34,330.927 636.34,341.766 C636.34,352.6 627.745,361.499 616.325,361.499 M616.447,320.5 C604.245,320.5 594.632,330.218 594.632,341.882 C594.632,353.546 604.128,363.146 616.325,363.146 C628.524,363.146 638.144,353.428 638.144,341.766 C638.144,330.103 628.648,320.5 616.447,320.5 Z" style="stroke:none;fill-rule:evenodd;fill:#ffffff;fill-opacity:1;"/>
  </g>
</svg>
